<?xml version="1.0" encoding="UTF-8"?>
<svg version = "1.1"
     xmlns = "http://www.w3.org/2000/svg" 
     xmlns:xlink = "http://www.w3.org/1999/xlink"
     height = "100px"  width = "100px">
    <defs>
        <clipPath id="clipHead">
            <rect x="0" y="0" width="100" height="38" />
        </clipPath>
        <clipPath id="clipLeftWing">
            <rect x="0" y="40" width="49" height="50" />
        </clipPath>
        <clipPath id="clipRightWing">
            <rect x="51" y="40" width="50" height="50" />
        </clipPath>
        <clipPath id="clipLeftAntenna">
            <rect x="20" y="5" width="30" height="30" />
        </clipPath>
        <clipPath id="clipRightAntenna">
            <rect x="50" y="5" width="30" height="30" />
        </clipPath>
    </defs>
    <circle cx="50" cy="40" r="25" fill="red" clip-path="url(#clipHead)" />
    
    <ellipse cx="50" cy="40" rx="30" ry="50" fill="red" clip-path="url(#clipLeftWing)" />
    <ellipse cx="50" cy="40" rx="30" ry="50" fill="red" clip-path="url(#clipRightWing)" />
    
    <circle cx="20" cy="40" r="30" stroke="red" stroke-width="4" fill="none" clip-path="url(#clipLeftAntenna)" />
    <circle cx="80" cy="40" r="30" stroke="red" stroke-width="4" fill="none" clip-path="url(#clipRightAntenna)" />
    
    <path d="M 10 50 A 50 50 0 0 1 30 50" stroke="red" stroke-width="4" fill="none" />
    <path d="M 90 50 A 50 50 0 0 0 70 50" stroke="red" stroke-width="4" fill="none" />
    
    <path d="M 12 70 A 50 50 0 0 1 30 63" stroke="red" stroke-width="4" fill="none" />
    <path d="M 88 70 A 50 50 0 0 0 70 63" stroke="red" stroke-width="4" fill="none" />
    
    <path d="M 20 90 A 50 100 0 0 1 30 75" stroke="red" stroke-width="4" fill="none" />
    <path d="M 80 90 A 50 100 0 0 0 70 75" stroke="red" stroke-width="4" fill="none" />
</svg>
